<svg version="1.1" xmlns="http://www.w3.org/2000/svg" xmlns:xlink="http://www.w3.org/1999/xlink" width="48.99282" height="48.70237" viewBox="0,0,48.99282,48.70237"><g transform="translate(-216.42248,-158.8199)"><g data-paper-data="{&quot;isPaintingLayer&quot;:true}" fill="none" fill-rule="nonzero" stroke="#ff8800" stroke-width="3.5" stroke-linecap="round" stroke-linejoin="miter" stroke-miterlimit="10" stroke-dasharray="" stroke-dashoffset="0" style="mix-blend-mode: normal"><g><path d="M237.50438,179.7068c0,0 -0.96246,-19.30309 3.0553,-19.13581c3.70355,0.15419 3.69852,19.13581 3.69852,19.13581"/><path d="M244.11243,186.63646c0,0 0.04,19.10073 -3.53771,19.13582c-3.42888,0.03362 -3.2161,-19.13582 -3.2161,-19.13582" data-paper-data="{&quot;index&quot;:null}"/><path d="M244.52948,179.81728c0,0 18.94758,-0.68755 19.13582,3.69852c0.16081,3.74688 -19.13582,3.0553 -19.13582,3.0553" data-paper-data="{&quot;index&quot;:null}"/><path d="M237.30829,186.58614c0,0 -18.94372,0.64239 -19.13582,-3.0553c-0.21731,-4.18313 19.13582,-3.69852 19.13582,-3.69852" data-paper-data="{&quot;index&quot;:null}"/></g></g></g></svg>